<?xml version="1.0" standalone="no"?>
<!DOCTYPE svg PUBLIC "-//W3C//DTD SVG 20010904//EN"
 "http://www.w3.org/TR/2001/REC-SVG-20010904/DTD/svg10.dtd">
<svg version="1.0" xmlns="http://www.w3.org/2000/svg"
 width="282.000000pt" height="102.000000pt" viewBox="0 0 282.000000 102.000000"
 preserveAspectRatio="xMidYMid meet">
<metadata>
Created by potrace 1.10, written by Peter Selinger 2001-2011
</metadata>
<g transform="translate(0.000000,102.000000) scale(0.100000,-0.100000)"
fill="#5a86de" stroke="none">
<path d="M1385 809 c-22 -5 -92 -6 -155 -3 -109 5 -117 4 -150 -18 -81 -54
-85 -54 -125 -19 -20 17 -41 31 -48 32 -89 7 -450 6 -478 -1 -28 -8 -45 -22
-68 -57 l-31 -46 0 -169 c0 -160 1 -171 25 -218 28 -55 41 -65 100 -74 57 -10
85 15 109 92 9 33 16 68 14 78 -2 11 4 20 16 22 15 3 18 0 13 -20 -4 -16 1
-33 18 -53 23 -30 23 -30 53 -12 40 23 41 23 48 -21 11 -72 39 -89 149 -91
317 -6 319 -6 386 35 l60 37 27 -25 c55 -52 96 -60 156 -32 33 16 37 16 88 -4
46 -19 66 -21 158 -16 111 7 112 7 285 3 61 -1 156 0 212 3 97 4 105 6 133 33
42 40 50 79 50 250 0 172 -8 210 -51 251 -25 24 -39 29 -80 29 -44 0 -54 -4
-80 -32 -16 -18 -34 -33 -40 -33 -6 0 -24 -11 -41 -25 -27 -23 -39 -25 -131
-27 -56 -1 -111 -1 -122 0 -11 2 -55 4 -99 7 -83 4 -101 11 -73 26 27 15 21
26 -30 56 -33 19 -69 30 -113 34 -36 4 -83 9 -105 12 -22 3 -58 1 -80 -4z
m-650 -94 l0 -30 -117 -3 -116 -3 -4 -50 c-1 -28 0 -56 4 -62 4 -6 36 -8 92
-4 48 3 93 4 101 0 9 -3 15 -18 15 -34 0 -33 3 -33 -124 -29 l-88 2 3 -108 4
-109 -49 0 -48 0 1 223 c0 123 3 227 5 231 3 4 76 7 163 7 l158 -1 0 -30z
m165 19 c5 -5 14 -30 19 -54 5 -25 21 -83 35 -129 14 -47 26 -94 26 -105 0
-12 4 -27 9 -35 7 -11 13 -5 26 25 9 21 20 57 25 79 9 42 24 89 46 143 8 18
14 44 14 57 0 20 6 25 35 31 19 3 46 3 60 0 l25 -6 2 -205 c1 -113 2 -215 2
-227 1 -21 -4 -23 -44 -23 l-45 0 4 133 c2 88 0 132 -7 132 -15 0 -22 -14 -37
-73 -45 -182 -53 -197 -94 -197 -41 0 -48 10 -71 95 -19 71 -26 98 -45 183 -3
13 -10 20 -16 16 -6 -4 -10 -56 -9 -138 1 -72 1 -137 1 -144 -1 -9 -14 -12
-43 -10 l-43 3 3 225 c2 203 4 226 20 231 25 9 90 5 102 -7z m739 1 c6 -6 8
-20 5 -32 -6 -20 -14 -22 -81 -25 l-76 -3 -1 -195 -1 -195 -44 0 -45 0 3 198
3 197 -71 0 c-68 0 -71 1 -77 26 -4 15 -2 29 4 33 18 11 370 7 381 -4z m709 2
c8 -10 8 -24 1 -51 -10 -37 -9 -343 1 -375 7 -19 -40 -36 -74 -27 -25 6 -27
10 -20 39 10 44 6 334 -5 373 -6 22 -5 36 2 43 15 15 82 14 95 -2z m-525 -132
c76 -57 76 -243 -1 -300 -19 -13 -47 -21 -93 -23 -65 -4 -68 -3 -107 32 -47
42 -68 109 -57 176 8 49 61 121 95 132 45 13 134 3 163 -17z m335 -3 c39 -39
51 -67 53 -122 4 -104 1 -115 -38 -156 -36 -39 -37 -39 -113 -39 -72 0 -78 2
-104 30 -38 40 -46 65 -46 140 0 74 8 100 42 136 32 34 49 39 124 35 46 -3 67
-9 82 -24z"/>
<path d="M1665 530 c-19 -38 -19 -108 1 -148 13 -27 21 -32 53 -32 64 0 76 17
76 105 0 88 -12 105 -77 105 -31 0 -40 -5 -53 -30z"/>
<path d="M2003 533 c-11 -17 -18 -46 -18 -78 0 -72 23 -105 75 -105 52 0 75
33 75 105 0 72 -23 105 -75 105 -32 0 -43 -5 -57 -27z"/>
</g>
</svg>
